<svg width="40" height="39" viewBox="0 0 40 39" fill="none" xmlns="http://www.w3.org/2000/svg">
<rect x="0.5" y="0.5" width="39" height="38" fill="#2E6C9F"/>
<path d="M18 30C18 31.1046 18.8954 32 20 32C21.1046 32 22 31.1046 22 30L18 30ZM21.4142 7.58579C20.6332 6.80474 19.3668 6.80474 18.5858 7.58579L5.85786 20.3137C5.07682 21.0948 5.07682 22.3611 5.85786 23.1421C6.63891 23.9232 7.90524 23.9232 8.68629 23.1421L20 11.8284L31.3137 23.1421C32.0948 23.9232 33.3611 23.9232 34.1421 23.1421C34.9232 22.3611 34.9232 21.0948 34.1421 20.3137L21.4142 7.58579ZM22 30L22 9L18 9L18 30L22 30Z" fill="#F5F5F5"/>
<rect x="0.5" y="0.5" width="39" height="38" stroke="#F5F5F5"/>
</svg>
